<svg viewBox="0 0 1200 660" xmlns="http://www.w3.org/2000/svg" font-family="-apple-system, BlinkMacSystemFont, 'Segoe UI', Helvetica, Arial, sans-serif">
  <defs>
    <marker id="arrowC1" markerWidth="10" markerHeight="10" refX="8" refY="3" orient="auto">
      <path d="M0,0 L8,3 L0,6 Z" fill="#8E8E93"/>
    </marker>
    <filter id="shadow" x="-50%" y="-50%" width="200%" height="200%">
      <feDropShadow dx="0" dy="2" stdDeviation="3" flood-color="#1C1C1E" flood-opacity="0.18"/>
    </filter>
  </defs>
  <rect x="0" y="0" width="1200" height="660" fill="#ffffff"/>
  <rect x="30" y="34" width="6" height="30" rx="3" fill="#007AFF"/>
  <text x="48" y="58" font-size="19" font-weight="700" fill="#1C1C1E">Diagrama de contexto (C1) — CMEDriver (v2)</text>

  <!-- ===== Relationship lines (drawn first so boxes sit on top) ===== -->
  <g stroke="#8E8E93" stroke-width="1.6" fill="none" marker-end="url(#arrowC1)">
    <path d="M174,160 L 430,255"/>
    <path d="M458,160 L 500,255"/>
    <path d="M742,160 L 700,255"/>
    <path d="M1026,160 L 790,255"/>
    <path d="M430,390 L 430,478"/>
    <path d="M770,390 L 770,478"/>
  </g>
  <g font-size="12" fill="#48484A">
    <rect x="120" y="185" width="128" height="16" fill="#ffffff"/>
    <text x="184" y="197" text-anchor="middle">Configura [HTTPS]</text>

    <rect x="395" y="200" width="180" height="16" fill="#ffffff"/>
    <text x="485" y="212" text-anchor="middle">Crea y asigna servicios [HTTPS]</text>

    <rect x="640" y="200" width="205" height="16" fill="#ffffff"/>
    <text x="742" y="212" text-anchor="middle">Ejecuta servicios, reporta GPS [HTTPS]</text>

    <rect x="880" y="185" width="185" height="16" fill="#ffffff"/>
    <text x="972" y="197" text-anchor="middle">Solicita y sigue servicios [HTTPS]</text>

    <rect x="360" y="425" width="170" height="16" fill="#ffffff"/>
    <text x="445" y="437" text-anchor="middle">Crea servicios [API Key]</text>

    <rect x="695" y="425" width="160" height="16" fill="#ffffff"/>
    <text x="775" y="437" text-anchor="middle">Mapas y geocoding</text>
  </g>

  <!-- ===== Person boxes ===== -->
  <g font-size="13">
    <!-- Administrador -->
    <rect x="64" y="40" width="220" height="110" rx="14" fill="#0051D5" stroke="#003C9E" filter="url(#shadow)"/>
    <circle cx="174" cy="62" r="10" fill="#ffffff"/>
    <path d="M 160,86 a14,14 0 0 1 28,0 z" fill="#ffffff"/>
    <text x="174" y="105" text-anchor="middle" font-weight="700" fill="#ffffff">Administrador</text>
    <text x="174" y="122" text-anchor="middle" font-size="10.5" fill="#cfe0f2" font-style="italic">[Persona]</text>
    <text x="174" y="138" text-anchor="middle" font-size="11" fill="#e8f0fa">Configura usuarios y</text>
    <text x="174" y="152" text-anchor="middle" font-size="11" fill="#e8f0fa">cobertura</text>

    <!-- Alistador -->
    <rect x="348" y="40" width="220" height="110" rx="14" fill="#0051D5" stroke="#003C9E" filter="url(#shadow)"/>
    <circle cx="458" cy="62" r="10" fill="#ffffff"/>
    <path d="M 444,86 a14,14 0 0 1 28,0 z" fill="#ffffff"/>
    <text x="458" y="105" text-anchor="middle" font-weight="700" fill="#ffffff">Alistador</text>
    <text x="458" y="122" text-anchor="middle" font-size="10.5" fill="#cfe0f2" font-style="italic">[Persona]</text>
    <text x="458" y="138" text-anchor="middle" font-size="11" fill="#e8f0fa">Crea y asigna</text>
    <text x="458" y="152" text-anchor="middle" font-size="11" fill="#e8f0fa">servicios</text>

    <!-- Motorizado -->
    <rect x="632" y="40" width="220" height="110" rx="14" fill="#0051D5" stroke="#003C9E" filter="url(#shadow)"/>
    <circle cx="742" cy="62" r="10" fill="#ffffff"/>
    <path d="M 728,86 a14,14 0 0 1 28,0 z" fill="#ffffff"/>
    <text x="742" y="105" text-anchor="middle" font-weight="700" fill="#ffffff">Motorizado</text>
    <text x="742" y="122" text-anchor="middle" font-size="10.5" fill="#cfe0f2" font-style="italic">[Persona]</text>
    <text x="742" y="138" text-anchor="middle" font-size="11" fill="#e8f0fa">Ejecuta servicios</text>
    <text x="742" y="152" text-anchor="middle" font-size="11" fill="#e8f0fa">en campo</text>

    <!-- Cliente -->
    <rect x="916" y="40" width="220" height="110" rx="14" fill="#0051D5" stroke="#003C9E" filter="url(#shadow)"/>
    <circle cx="1026" cy="62" r="10" fill="#ffffff"/>
    <path d="M 1012,86 a14,14 0 0 1 28,0 z" fill="#ffffff"/>
    <text x="1026" y="105" text-anchor="middle" font-weight="700" fill="#ffffff">Cliente</text>
    <text x="1026" y="122" text-anchor="middle" font-size="10.5" fill="#cfe0f2" font-style="italic">[Persona]</text>
    <text x="1026" y="138" text-anchor="middle" font-size="11" fill="#e8f0fa">Solicita servicios y</text>
    <text x="1026" y="152" text-anchor="middle" font-size="11" fill="#e8f0fa">hace seguimiento</text>
  </g>

  <!-- ===== CMEDriver system ===== -->
  <g>
    <rect x="350" y="255" width="500" height="135" rx="16" fill="#007AFF" stroke="#0051D5" filter="url(#shadow)"/>
    <text x="600" y="290" text-anchor="middle" font-size="16" font-weight="700" fill="#ffffff">Plataforma CMEDriver</text>
    <text x="600" y="308" text-anchor="middle" font-size="11" font-style="italic" fill="#cfe0f2">[Sistema de software]</text>
    <text x="600" y="330" text-anchor="middle" font-size="12" fill="#eaf2fb">Gestiona servicios de mensajeria: entregas, recolecciones,</text>
    <text x="600" y="347" text-anchor="middle" font-size="12" fill="#eaf2fb">tracking en vivo, chatbot con IA, pagos, inventario y optimizacion de rutas</text>
    <text x="600" y="368" text-anchor="middle" font-size="11" fill="#cfe0f2">(chatbot/pagos con proveedor simulado; ver 03-arquitectura.md)</text>
  </g>

  <!-- ===== External systems ===== -->
  <g font-size="13">
    <rect x="300" y="478" width="260" height="110" rx="14" fill="#98989D" stroke="#7C7C80" filter="url(#shadow)"/>
    <text x="430" y="512" text-anchor="middle" font-weight="700" fill="#ffffff">Sistema externo</text>
    <text x="430" y="529" text-anchor="middle" font-size="10.5" font-style="italic" fill="#f0f0f1">[Sistema de software - Externo]</text>
    <text x="430" y="550" text-anchor="middle" font-size="11" fill="#f7f7f8">E-commerce / ERP que crea</text>
    <text x="430" y="565" text-anchor="middle" font-size="11" fill="#f7f7f8">servicios via API</text>

    <rect x="640" y="478" width="260" height="110" rx="14" fill="#98989D" stroke="#7C7C80" filter="url(#shadow)"/>
    <text x="770" y="512" text-anchor="middle" font-weight="700" fill="#ffffff">OpenStreetMap</text>
    <text x="770" y="529" text-anchor="middle" font-size="10.5" font-style="italic" fill="#f0f0f1">[Sistema de software - Externo]</text>
    <text x="770" y="550" text-anchor="middle" font-size="11" fill="#f7f7f8">Mapas (tiles) y geocoding</text>
    <text x="770" y="565" text-anchor="middle" font-size="11" fill="#f7f7f8">(Nominatim) para rutas</text>
  </g>

  <!-- ===== Legend ===== -->
  <g font-size="11" fill="#48484A">
    <rect x="64" y="612" width="16" height="16" rx="4" fill="#0051D5"/>
    <text x="86" y="624">Persona (actor)</text>
    <rect x="220" y="612" width="16" height="16" rx="4" fill="#007AFF"/>
    <text x="242" y="624">Sistema (en alcance)</text>
    <rect x="410" y="612" width="16" height="16" rx="4" fill="#98989D"/>
    <text x="432" y="624">Sistema externo</text>
  </g>
</svg>
